<svg xmlns='http://www.w3.org/2000/svg' xmlns:xlink='http://www.w3.org/1999/xlink'>
    <defs>
        <symbol id="icon_export" viewBox="0 0 24 24" fill="none" xmlns="http://www.w3.org/2000/svg">
            <path d="M16.44 8.90039C20.04 9.21039 21.51 11.0604 21.51 15.1104V15.2404C21.51 19.7104 19.72 21.5004 15.25 21.5004H8.73998C4.26998 21.5004 2.47998 19.7104 2.47998 15.2404V15.1104C2.47998 11.0904 3.92998 9.24039 7.46998 8.91039" stroke="#F1F5F9" stroke-width="1.5" stroke-linecap="round" stroke-linejoin="round"/>
            <path d="M12 14.9991V3.61914" stroke="#FEFEFE" stroke-width="1.5" stroke-linecap="round" stroke-linejoin="round"/>
            <path d="M15.3499 5.85L11.9999 2.5L8.6499 5.85" stroke="#FEFEFE" stroke-width="1.5" stroke-linecap="round" stroke-linejoin="round"/>
        </symbol>

        <symbol id="icon_plus" viewBox="0 0 24 24" fill="none" xmlns="http://www.w3.org/2000/svg">
            <path d="M12.0001 2.77142V21.3429M2.71436 12H21.2858"/>
        </symbol>

        <symbol id="icon_attach_file" viewBox="0 0 24 24" fill="none" xmlns="http://www.w3.org/2000/svg">
            <path d="M17.3569 18.4286V6.28578C17.3569 5.33858 16.9806 4.43018 16.3108 3.7604C15.641 3.09063 14.7326 2.71436 13.7854 2.71436H10.214C9.2668 2.71436 8.3584 3.09063 7.68863 3.7604C7.01885 4.43018 6.64258 5.33858 6.64258 6.28578V18.4286C6.64258 19.1864 6.9436 19.9131 7.47942 20.4489C8.01523 20.9848 8.74196 21.2858 9.49972 21.2858H10.9283C11.6861 21.2858 12.4128 20.9848 12.9486 20.4489C13.4844 19.9131 13.7854 19.1864 13.7854 18.4286V7.71436C13.7854 7.33547 13.6349 6.97211 13.367 6.7042C13.0991 6.43629 12.7357 6.28578 12.3569 6.28578H11.6426C11.2637 6.28578 10.9003 6.43629 10.6324 6.7042C10.3645 6.97211 10.214 7.33547 10.214 7.71436V15.5715" stroke="#BCC6CC" stroke-width="1.5" stroke-linecap="round" stroke-linejoin="round"/>
        </symbol>

        <symbol id="icon_folder" viewBox="0 0 80 80" xmlns="http://www.w3.org/2000/svg">
            <path d="M71.6991 29.516C71.9848 30.1466 71.5037 30.8334 70.8114 30.8334H7.6665C7.11422 30.8334 6.6665 30.3857 6.6665 29.8334V21.4001C6.6665 13.2667 13.2665 6.66675 21.3998 6.66675H29.1332C34.5665 6.66675 36.2665 8.43342 38.4332 11.3334L43.0998 17.5334C44.1332 18.9001 44.2665 19.0667 46.1998 19.0667H55.4998C62.6977 19.0667 68.9053 23.3485 71.6991 29.516Z"/>
            <path d="M72.2699 35.8325C72.8208 35.8325 73.268 36.2782 73.2699 36.8291L73.3332 55.5001C73.3332 65.3334 65.3332 73.3334 55.4998 73.3334H24.4998C14.6665 73.3334 6.6665 65.3334 6.6665 55.5001V36.8334C6.6665 36.2811 7.11421 35.8334 7.66649 35.8334L72.2699 35.8325Z"/>
        </symbol>
    </defs>
</svg>
